<svg width="171" height="49" viewBox="0 0 171 49" fill="none" xmlns="http://www.w3.org/2000/svg">
<g clip-path="url(#clip0_1_606)">
<path d="M3.20697 34.7226H25.7703L21.7616 23.6434H24.0522L28.061 34.7226H34.8185V3.19813H3.20697V34.7226ZM38.0255 37.9207H29.2063L33.3295 49H31.0388L26.9156 37.9207H0V0H38.0255V37.9207ZM58.6417 1.71329L71.9277 38.035H74.2184L60.9324 1.71329H58.6417ZM77.5398 15.9907V1.71329H86.7026V3.65501H79.716V7.99534H85.6718V9.93706H79.716V14.049H86.7026V15.9907H77.5398ZM95.4072 3.65501V7.99534H101.363V9.93706H95.4072V15.9907H93.2311V1.71329H102.394V3.65501H95.4072ZM61.6196 38.035L57.6109 30.9534L55.2056 33.8089V37.9207H53.0295V23.7576H55.2056V30.9534L61.0469 23.7576H63.6812L58.9853 29.3543L64.1393 38.035H61.6196ZM88.5352 26.9557L86.359 33.2378H90.7113L88.5352 26.9557ZM92.3148 38.035L91.284 35.1795H85.6718L84.7555 38.035H82.4648L87.7334 23.7576H89.4514L94.72 38.035H92.3148ZM105.715 25.6993H102.508V30.1538H105.715C107.204 30.1538 108.121 29.3543 108.121 27.9837C108.121 26.4988 107.09 25.6993 105.715 25.6993ZM108.235 38.035L105.143 31.9813H102.394V38.035H100.218V23.7576H105.715C108.464 23.7576 110.182 25.4709 110.182 27.8695C110.182 29.9254 108.922 31.1818 107.319 31.6387L110.64 37.9207H108.235V38.035ZM121.865 25.6993V38.035H119.689V25.6993H115.794V23.7576H125.873V25.6993H121.865ZM135.151 26.9557L132.975 33.2378H137.327L135.151 26.9557ZM132.058 20.5594H138.243V22.0443H132.058V20.5594ZM138.93 38.035L137.9 35.1795H132.287L131.257 38.035H128.966L134.234 23.7576H135.952L141.221 38.035H138.93ZM146.948 38.035V23.7576H149.124V36.0932H155.996V38.035H146.948ZM165.846 38.1492C163.67 38.1492 162.181 37.6923 160.806 36.3217L162.295 34.951C163.326 35.979 164.472 36.3217 165.96 36.3217C167.793 36.3217 168.938 35.5221 168.938 34.1515C168.938 33.5804 168.709 33.0093 168.366 32.6667C168.022 32.324 167.679 32.2098 166.762 32.0956L165.044 31.8671C163.899 31.7529 162.983 31.296 162.295 30.7249C161.608 30.0396 161.265 29.1259 161.265 27.9837C161.265 25.4709 163.097 23.7576 166.075 23.7576C167.908 23.7576 169.282 24.2145 170.542 25.3566L169.167 26.7273C168.251 25.9277 167.22 25.5851 166.075 25.5851C164.357 25.5851 163.441 26.4988 163.441 27.7552C163.441 28.3263 163.555 28.7832 164.013 29.1259C164.357 29.4685 164.93 29.697 165.617 29.8112L167.22 30.0396C168.595 30.2681 169.282 30.6107 169.855 31.0676C170.656 31.7529 171 32.7809 171 34.0373C171 36.5501 168.824 38.1492 165.846 38.1492ZM77.1963 23.7576L74.1038 31.9813H76.3945L79.3724 23.7576H77.1963ZM69.1788 1.71329L66.2009 9.93706H68.4916L71.4695 1.71329H69.1788Z" fill="#212529"/>
</g>
<defs>
<clipPath id="clip0_1_606">
<rect width="171" height="49" fill="white"/>
</clipPath>
</defs>
</svg>
